<svg xmlns="http://www.w3.org/2000/svg" width="980" height="320" viewBox="0 0 980 320" role="img" aria-labelledby="title desc">
  <title id="title">Sentinel Vision Architecture</title>
  <desc id="desc">Pipeline diagram from video input through detection, tracking, event logic, outputs, and API dashboard.</desc>
  <defs>
    <style>
      .bg { fill: #f5f1e8; }
      .panel { fill: #fffdf8; stroke: #2d2a26; stroke-width: 2; rx: 14; }
      .accent { fill: #d96c3f; }
      .ink { fill: #2d2a26; font-family: Arial, sans-serif; }
      .label { font-size: 16px; font-weight: 700; }
      .small { font-size: 12px; }
      .arrow { stroke: #2d2a26; stroke-width: 3; fill: none; marker-end: url(#head); }
    </style>
    <marker id="head" markerWidth="10" markerHeight="10" refX="8" refY="5" orient="auto">
      <path d="M0,0 L10,5 L0,10 z" fill="#2d2a26" />
    </marker>
  </defs>
  <rect class="bg" width="980" height="320" />
  <rect class="panel" x="30" y="55" width="150" height="88" />
  <text class="ink label" x="55" y="90">Video Input</text>
  <text class="ink small" x="55" y="115">Webcam / RTSP / File</text>
  <rect class="panel" x="220" y="55" width="160" height="88" />
  <text class="ink label" x="255" y="90">YOLO Detection</text>
  <text class="ink small" x="255" y="115">Target classes + scores</text>
  <rect class="panel" x="420" y="55" width="170" height="88" />
  <text class="ink label" x="452" y="90">ByteTrack / BoT-SORT</text>
  <text class="ink small" x="452" y="115">Stable IDs + motion state</text>
  <rect class="panel" x="630" y="35" width="310" height="130" />
  <text class="ink label" x="655" y="70">Event Layer</text>
  <text class="ink small" x="655" y="95">Intrusion, loitering, line crossing</text>
  <text class="ink small" x="655" y="115">wrong-way, after-hours, vehicle zone</text>
  <text class="ink small" x="655" y="135">polygon + line zone metadata</text>
  <rect class="panel" x="120" y="205" width="250" height="86" />
  <text class="ink label" x="145" y="240">Alert Output</text>
  <text class="ink small" x="145" y="265">Snapshots, pre/post clips, JSONL</text>
  <rect class="panel" x="430" y="205" width="220" height="86" />
  <text class="ink label" x="455" y="240">SQLite Alert Store</text>
  <text class="ink small" x="455" y="265">Persistent history + filters</text>
  <rect class="panel" x="710" y="205" width="180" height="86" />
  <text class="ink label" x="738" y="240">API + Dashboard</text>
  <text class="ink small" x="738" y="265">FastAPI + Streamlit</text>
  <path class="arrow" d="M180 99 H220" />
  <path class="arrow" d="M380 99 H420" />
  <path class="arrow" d="M590 99 H630" />
  <path class="arrow" d="M785 165 V205" />
  <path class="arrow" d="M555 143 V205" />
  <path class="arrow" d="M370 248 H430" />
  <path class="arrow" d="M650 248 H710" />
  <circle class="accent" cx="55" cy="37" r="8" />
  <text class="ink small" x="70" y="42">Operator-facing outputs and persistent backend</text>
</svg>
